<?xml version="1.0" encoding="UTF-8"?> <svg xmlns="http://www.w3.org/2000/svg" width="35" height="35" viewBox="0 0 35 35" fill="none"><path d="M25.5258 0H9.47418C4.25003 0 0 4.25003 0 9.47418V25.5261C0 30.75 4.25003 35 9.47418 35H25.5261C30.75 35 35 30.75 35 25.5261V9.47418C35 4.25003 30.75 0 25.5258 0ZM17.5 27.07C12.223 27.07 7.92995 22.777 7.92995 17.5C7.92995 12.223 12.223 7.92995 17.5 7.92995C22.777 7.92995 27.07 12.223 27.07 17.5C27.07 22.777 22.777 27.07 17.5 27.07ZM27.2989 10.1869C25.7394 10.1869 24.4711 8.91849 24.4711 7.35905C24.4711 5.7996 25.7394 4.53094 27.2989 4.53094C28.8583 4.53094 30.127 5.7996 30.127 7.35905C30.127 8.91849 28.8583 10.1869 27.2989 10.1869Z" fill="#FBFBFB"></path><path d="M17.4999 9.98246C13.3545 9.98246 9.98173 13.3551 9.98173 17.5008C9.98173 21.6462 13.3545 25.0191 17.4999 25.0191C21.6455 25.0191 25.018 21.6462 25.018 17.5008C25.018 13.3551 21.6455 9.98246 17.4999 9.98246Z" fill="#FBFBFB"></path><path d="M27.2989 6.58252C26.8711 6.58252 26.5229 6.93072 26.5229 7.3585C26.5229 7.78627 26.8711 8.13447 27.2989 8.13447C27.7269 8.13447 28.0751 7.78654 28.0751 7.3585C28.0751 6.93046 27.7269 6.58252 27.2989 6.58252Z" fill="#FBFBFB"></path></svg> 