<?xml version="1.0" encoding="UTF-8"?> <svg xmlns="http://www.w3.org/2000/svg" width="20" height="20" viewBox="0 0 20 20" fill="none"><path d="M14.19 0H5.26677C2.36262 0 0 2.46913 0 5.50419V14.8298C0 17.8647 2.36262 20.3338 5.26677 20.3338H14.1901C17.0941 20.3338 19.4568 17.8647 19.4568 14.8298V5.50419C19.4568 2.46913 17.0941 0 14.19 0ZM9.72838 15.7268C6.79484 15.7268 4.40832 13.2327 4.40832 10.1669C4.40832 7.10115 6.79484 4.60704 9.72838 4.60704C12.6619 4.60704 15.0484 7.10115 15.0484 10.1669C15.0484 13.2327 12.6619 15.7268 9.72838 15.7268ZM15.1756 5.91824C14.3087 5.91824 13.6036 5.18135 13.6036 4.27536C13.6036 3.36938 14.3087 2.63233 15.1756 2.63233C16.0426 2.63233 16.7478 3.36938 16.7478 4.27536C16.7478 5.18135 16.0426 5.91824 15.1756 5.91824Z" fill="#8F5633"></path><path d="M9.72831 5.79948C7.42389 5.79948 5.54891 7.75887 5.54891 10.1674C5.54891 12.5757 7.42389 14.5353 9.72831 14.5353C12.0329 14.5353 13.9077 12.5757 13.9077 10.1674C13.9077 7.75887 12.0329 5.79948 9.72831 5.79948Z" fill="#8F5633"></path><path d="M15.1756 3.82423C14.9379 3.82423 14.7443 4.02652 14.7443 4.27504C14.7443 4.52357 14.9379 4.72586 15.1756 4.72586C15.4136 4.72586 15.6071 4.52372 15.6071 4.27504C15.6071 4.02637 15.4136 3.82423 15.1756 3.82423Z" fill="#8F5633"></path></svg> 