<?xml version="1.0" encoding="UTF-8"?> <svg xmlns="http://www.w3.org/2000/svg" width="20" height="20" viewBox="0 0 20 20" fill="none"><path d="M5.12064 17.803C5.12064 17.1866 5.11928 16.5704 5.12236 15.9542C5.12236 15.8853 5.10126 15.8607 5.03695 15.8425C4.30479 15.6348 3.63563 15.305 3.04533 14.8189C2.47696 14.3502 2.05252 13.7708 1.73693 13.1084C1.45093 12.5079 1.27623 11.8737 1.16106 11.2208C1.08426 10.7793 1.02668 10.3358 1.01767 9.88822C1.00441 9.29907 1.00212 8.70956 1 8.12006C1 7.87337 1.00384 7.62614 1.01919 7.37987C1.04762 6.90454 1.07275 6.42887 1.12112 5.95551C1.19637 5.22277 1.35668 4.50754 1.62196 3.8184C1.84923 3.22829 2.15254 2.68121 2.56255 2.19804C2.99543 1.68839 3.53773 1.32309 4.13491 1.03535C4.83712 0.697101 5.57598 0.467132 6.33883 0.316441C6.73944 0.237162 7.14333 0.172666 7.54819 0.117181C7.83612 0.0776505 8.12887 0.0551895 8.42007 0.0404063C8.86754 0.0188985 9.31556 0.00201904 9.76379 0.00027664C10.1614 -0.00201026 10.5597 0.0100778 10.9568 0.0292715C11.3599 0.0484651 11.765 0.0738118 12.1662 0.114704C13.3563 0.235447 14.5198 0.471351 15.6261 0.941854C16.0384 1.11732 16.4473 1.30158 16.808 1.57399C17.3436 1.97845 17.7294 2.50345 18.0293 3.09759C18.3291 3.69169 18.518 4.32767 18.6627 4.9763C18.7636 5.44618 18.8367 5.92161 18.8818 6.40009C18.9549 7.12147 18.9628 7.84498 18.9467 8.56925C18.9372 8.99752 18.9082 9.42558 18.876 9.85288C18.8238 10.5349 18.7535 11.2158 18.5911 11.8817C18.3846 12.73 18.0454 13.5134 17.4806 14.1903C16.8879 14.9005 16.1436 15.3839 15.2643 15.6557C14.5448 15.8774 13.814 16.0611 13.0688 16.1746C12.6081 16.2452 12.1462 16.3062 11.683 16.3575C11.3694 16.3921 11.053 16.4053 10.7374 16.4195C10.4166 16.4339 10.0953 16.4471 9.77435 16.4445C9.4033 16.4414 9.03204 16.4214 8.66099 16.4061C8.5984 16.4036 8.55138 16.4107 8.5051 16.4656C7.87484 17.2135 7.24232 17.9595 6.60757 18.7037C6.29851 19.0639 5.9766 19.4139 5.65891 19.7658C5.55831 19.8773 5.44658 19.9734 5.28898 19.9973C5.2314 20.0063 5.1978 19.9943 5.17286 19.935C5.12832 19.832 5.10534 19.721 5.10529 19.6087C5.1072 19.0069 5.10529 18.4052 5.10529 17.8043L5.12064 17.803ZM10.9179 11.1764C10.8265 11.1609 10.7324 11.154 10.6439 11.1285C9.91805 10.9215 9.25234 10.5435 8.70264 10.0262C7.98278 9.35436 7.4831 8.53854 7.16388 7.61003C7.08708 7.38447 7.1393 7.17138 7.29056 7.00054C7.40959 6.86616 7.56257 6.76039 7.70501 6.6477C7.86569 6.52064 8.02866 6.39508 8.10813 6.19909C8.24251 5.86817 8.1849 5.55527 8.01216 5.25291C7.61653 4.56493 7.13546 3.93971 6.62387 3.33485C6.38508 3.05228 6.00598 2.93865 5.63645 3.11199C5.34275 3.24999 5.08914 3.44541 4.84594 3.65581C4.62213 3.84949 4.41846 4.06179 4.26142 4.31482C4.03107 4.68472 3.96197 5.07535 4.11514 5.4923C4.19328 5.70498 4.26872 5.91998 4.36009 6.12692C4.80524 7.12512 5.31337 8.08992 5.92207 8.99981C6.66362 10.1086 7.54759 11.0843 8.61549 11.8886C9.84402 12.8143 11.1878 13.5364 12.6098 14.1167C12.8096 14.1983 13.016 14.2586 13.2325 14.2703C13.5366 14.2858 13.8084 14.1799 14.0526 14.0123C14.5342 13.6825 14.8989 13.2445 15.174 12.7334C15.2376 12.6101 15.2759 12.4754 15.2869 12.3371C15.3101 12.0735 15.1932 11.8595 14.9938 11.6903C14.8978 11.6082 14.7974 11.5293 14.6999 11.4479C14.167 11.0037 13.6057 10.6004 12.9976 10.2645C12.8231 10.1685 12.6419 10.1189 12.4409 10.1301C12.1746 10.1439 11.9564 10.2487 11.79 10.4576C11.6824 10.5919 11.5807 10.7319 11.4707 10.8645C11.3288 11.0371 11.1626 11.1728 10.9188 11.1764H10.9179ZM15.6681 8.38553C15.6522 8.13732 15.6447 7.88816 15.6188 7.64112C15.5778 7.24486 15.5019 6.85303 15.3919 6.47014C15.189 5.76624 14.8832 5.11259 14.4223 4.54016C13.6339 3.56117 12.6257 2.91676 11.4123 2.59349C11.1077 2.5123 10.7981 2.45162 10.4833 2.4334C10.2498 2.41996 10.016 2.40768 9.78241 2.40691C9.71672 2.40656 9.65342 2.43155 9.60567 2.47667C9.55792 2.52178 9.52936 2.58355 9.52595 2.64916C9.51463 2.81867 9.59584 2.93827 9.74805 2.96552C9.82771 2.97973 9.90931 2.98335 9.9903 2.99007C10.2306 3.00927 10.4731 3.01561 10.7107 3.05209C11.259 3.13636 11.7857 3.29529 12.2804 3.55118C13.3312 4.09481 14.1244 4.88589 14.597 5.98044C14.9061 6.69608 15.0335 7.45049 15.065 8.22449C15.0692 8.327 15.0671 8.43064 15.0823 8.53162C15.1003 8.65332 15.1782 8.73088 15.2984 8.76352C15.4073 8.79306 15.4957 8.75525 15.5741 8.68365C15.6628 8.60303 15.6685 8.49571 15.6681 8.38553ZM10.3823 3.85834C10.3558 3.85834 10.3295 3.85678 10.3032 3.85834C10.1625 3.86754 10.0636 3.95027 10.0272 4.08869C9.99607 4.20654 10.0381 4.33113 10.1492 4.39064C10.2212 4.42682 10.2994 4.44885 10.3796 4.45552C10.6649 4.48391 10.9474 4.52461 11.2243 4.60218C12.1122 4.85172 12.7889 5.36848 13.2218 6.18951C13.4636 6.64827 13.5752 7.1401 13.5831 7.65723C13.582 7.75756 13.5875 7.85786 13.5994 7.95747C13.6205 8.10029 13.7568 8.20451 13.89 8.19223C14.0628 8.17612 14.1639 8.06918 14.1701 7.90659C14.1857 7.57452 14.161 7.24181 14.0965 6.91568C13.9555 6.23576 13.6608 5.63319 13.1909 5.11894C12.7058 4.58816 12.1051 4.24858 11.4216 4.04396C11.0824 3.94355 10.7328 3.89844 10.3823 3.85834ZM12.7304 7.33799C12.7064 7.1754 12.6935 7.01034 12.6563 6.8508C12.5517 6.40374 12.3311 6.02537 11.9602 5.74416C11.7176 5.55968 11.4306 5.48519 11.1432 5.41207C10.9797 5.37041 10.8152 5.35274 10.6482 5.39805C10.4923 5.44027 10.4472 5.56235 10.4506 5.67062C10.4556 5.82937 10.5624 5.93784 10.7023 5.95532C10.8563 5.97146 11.0093 5.99626 11.1605 6.02959C11.6053 6.13614 11.9117 6.40276 12.0362 6.84851C12.0898 7.04045 12.113 7.24088 12.1431 7.43859C12.1604 7.55261 12.2094 7.63633 12.3171 7.68163C12.4248 7.72693 12.5252 7.71177 12.6192 7.63937C12.7215 7.56067 12.7208 7.45185 12.7304 7.33799Z" fill="#8F5633"></path><path d="M10.9187 11.1765C11.1625 11.1729 11.3288 11.0371 11.4716 10.8644C11.5816 10.7317 11.6828 10.5924 11.7908 10.4574C11.9573 10.2486 12.1747 10.1437 12.4418 10.1299C12.6418 10.1194 12.823 10.1683 12.9985 10.2643C13.607 10.6002 14.1679 11.0035 14.7008 11.4477C14.7983 11.5291 14.8979 11.608 14.9947 11.6902C15.1941 11.8593 15.311 12.0741 15.2878 12.3369C15.2769 12.4748 15.2388 12.6091 15.1757 12.7322C14.9006 13.2428 14.5359 13.6812 14.0543 14.011C13.8095 14.1786 13.5383 14.2845 13.2342 14.269C13.0177 14.258 12.8119 14.1978 12.6115 14.1154C11.1896 13.5351 9.84723 12.813 8.61714 11.8873C7.54927 11.083 6.66527 10.1073 5.92374 8.99853C5.31502 8.08861 4.80689 7.124 4.36174 6.12563C4.26961 5.9187 4.19493 5.70332 4.11679 5.49099C3.96324 5.07407 4.03329 4.68342 4.26307 4.31351C4.42011 4.06051 4.62378 3.84821 4.84759 3.6545C5.09082 3.44334 5.3444 3.24871 5.6381 3.11068C6.00686 2.93791 6.38673 3.05098 6.62574 3.33354C7.1373 3.93843 7.61837 4.56363 8.014 5.25163C8.18791 5.55396 8.24607 5.86686 8.10997 6.19781C8.02974 6.3938 7.86677 6.51933 7.70685 6.64642C7.56443 6.75911 7.41143 6.86449 7.29243 6.99923C7.14114 7.17009 7.08835 7.38316 7.16572 7.60872C7.48496 8.53723 7.98463 9.3521 8.70448 10.0249C9.25386 10.5423 9.91921 10.9205 10.6448 11.1277C10.7333 11.154 10.8274 11.161 10.9187 11.1765Z" fill="white"></path><path d="M15.6681 8.38568C15.6681 8.49586 15.6628 8.60316 15.5741 8.68418C15.4957 8.75578 15.4073 8.7936 15.2984 8.76403C15.1775 8.73139 15.1003 8.65385 15.0823 8.53215C15.0671 8.43099 15.0692 8.32731 15.065 8.225C15.0335 7.45102 14.906 6.69662 14.597 5.98098C14.1244 4.88681 13.3312 4.09535 12.2804 3.55172C11.7861 3.29583 11.259 3.13689 10.7107 3.0526C10.4731 3.01615 10.2308 3.01076 9.9903 2.99061C9.9093 2.98389 9.82771 2.98024 9.74805 2.96603C9.59583 2.93877 9.51462 2.8192 9.52595 2.6497C9.52932 2.58398 9.55788 2.52209 9.60574 2.47693C9.65358 2.43176 9.71701 2.4068 9.78279 2.40723C10.0164 2.40723 10.2502 2.4203 10.4836 2.43372C10.799 2.45196 11.1081 2.51262 11.4128 2.59383C12.6261 2.91707 13.6343 3.56168 14.4227 4.5405C14.8834 5.11294 15.1894 5.76655 15.3923 6.47048C15.5023 6.85335 15.5782 7.2452 15.6192 7.64143C15.6447 7.88831 15.6522 8.13747 15.6681 8.38568Z" fill="white"></path><path d="M10.3819 3.85862C10.7324 3.89875 11.082 3.94386 11.4215 4.04522C12.1051 4.24908 12.7058 4.58866 13.1909 5.1202C13.6608 5.63445 13.9554 6.23702 14.0965 6.91694C14.161 7.24307 14.1857 7.57579 14.17 7.90785C14.1639 8.07044 14.0635 8.17659 13.89 8.1935C13.7568 8.20577 13.6212 8.10153 13.5993 7.95873C13.5874 7.85909 13.582 7.75882 13.583 7.6585C13.5752 7.14136 13.4636 6.64954 13.2218 6.19077C12.7889 5.36974 12.1122 4.85299 11.2242 4.60344C10.9478 4.52664 10.6652 4.48518 10.3796 4.45678C10.2993 4.45011 10.2211 4.42808 10.1492 4.3919C10.0381 4.33239 9.99565 4.20781 10.0271 4.08992C10.0636 3.95154 10.1615 3.8688 10.3032 3.85957C10.3291 3.85709 10.3554 3.85862 10.3819 3.85862Z" fill="white"></path><path d="M12.7303 7.33819C12.7207 7.45204 12.7215 7.56086 12.6191 7.63957C12.5251 7.71194 12.4272 7.7277 12.317 7.6818C12.2068 7.63592 12.1603 7.55281 12.1431 7.43879C12.1131 7.24108 12.0897 7.04046 12.0361 6.84868C11.9116 6.40296 11.6052 6.13634 11.1604 6.02978C11.0092 5.99646 10.8562 5.97166 10.7022 5.95551C10.5623 5.93803 10.4555 5.82957 10.4506 5.67082C10.4471 5.56255 10.4922 5.44047 10.6481 5.39824C10.8151 5.35294 10.9796 5.37058 11.1431 5.41226C11.4311 5.48539 11.7175 5.55988 11.9601 5.74436C12.331 6.02632 12.5516 6.40394 12.6562 6.851C12.6934 7.01051 12.7063 7.1756 12.7303 7.33819Z" fill="white"></path></svg> 